<svg xmlns="http://www.w3.org/2000/svg" width="375" viewBox="0 0 375 375" height="375" version="1.0"><defs><clipPath id="a"><path d="M 130.140625 93.46875 L 244.886719 93.46875 L 244.886719 225.273438 L 130.140625 225.273438 Z M 130.140625 93.46875"/></clipPath><clipPath id="b"><path d="M 130.140625 108 L 244.886719 108 L 244.886719 210.636719 L 130.140625 210.636719 Z M 130.140625 108"/></clipPath><clipPath id="c"><path d="M 130.140625 93.46875 L 244.886719 93.46875 L 244.886719 225.273438 L 130.140625 225.273438 Z M 130.140625 93.46875"/></clipPath></defs><path fill="#FFF" d="M-37.5 -37.5H412.5V412.5H-37.5z"/><path fill="#FFF" d="M-37.5 -37.5H412.5V412.5H-37.5z"/><path fill="#101120" d="M-37.5 -37.5H412.5V412.5H-37.5z"/><g clip-path="url(#a)"><path fill="#00C3D6" d="M 187.46875 225.273438 L 187.46875 217.957031 L 130.140625 181.507812 L 130.140625 188.824219 Z M 187.46875 173.867188 L 187.46875 181.230469 L 210.164062 166.78125 L 204.410156 163.121094 Z M 187.558594 93.46875 L 187.558594 100.789062 L 244.886719 137.234375 L 244.886719 129.917969 Z M 187.558594 144.875 L 187.558594 137.511719 L 164.8125 151.960938 L 170.617188 155.621094 L 187.558594 144.875"/></g><g clip-path="url(#b)"><path fill="#0057FF" d="M 187.46875 210.589844 L 187.46875 203.226562 L 130.140625 166.78125 L 130.140625 174.144531 Z M 187.46875 195.910156 L 221.726562 174.097656 L 215.96875 170.4375 L 187.46875 188.59375 Z M 187.558594 108.152344 L 187.558594 115.515625 L 244.886719 151.960938 L 244.886719 144.597656 Z M 187.558594 122.832031 L 153.257812 144.644531 L 159.058594 148.300781 L 187.558594 130.148438 L 187.558594 122.832031"/><path fill="#1FB5FF" d="M 187.46875 195.910156 L 187.46875 188.546875 L 130.140625 152.101562 L 130.140625 159.464844 Z M 187.46875 210.589844 L 233.332031 181.460938 L 227.527344 177.757812 L 187.46875 203.273438 Z M 187.558594 122.832031 L 187.558594 130.195312 L 244.886719 166.640625 L 244.886719 159.28125 Z M 187.558594 108.152344 L 141.695312 137.28125 L 147.453125 140.988281 L 187.558594 115.46875 L 187.558594 108.152344"/></g><g clip-path="url(#c)"><path fill="#85FCFF" d="M 187.46875 181.230469 L 187.46875 173.867188 L 130.140625 137.417969 L 130.140625 144.785156 Z M 187.46875 225.273438 L 244.886719 188.777344 L 239.085938 185.121094 L 187.46875 217.957031 Z M 187.558594 137.511719 L 187.558594 144.875 L 244.886719 181.324219 L 244.886719 173.960938 Z M 187.558594 93.46875 L 130.140625 129.964844 L 135.894531 133.621094 L 187.558594 100.789062 L 187.558594 93.46875"/></g><g fill="#101120"><g><g><path d="M 25.84375 0 L 20.078125 0 L 16.921875 -13.4375 C 16.535156 -15.019531 16.210938 -16.675781 15.953125 -18.40625 C 15.679688 -16.96875 15.460938 -15.867188 15.296875 -15.109375 C 15.140625 -14.359375 13.972656 -9.320312 11.796875 0 L 6.015625 0 L 0.03125 -23.234375 L 4.96875 -23.234375 L 8.328125 -8.234375 L 9.09375 -4.609375 C 9.394531 -6.128906 9.691406 -7.582031 9.984375 -8.96875 C 10.273438 -10.363281 11.375 -15.117188 13.28125 -23.234375 L 18.71875 -23.234375 L 21.65625 -10.875 C 21.882812 -9.945312 22.273438 -7.859375 22.828125 -4.609375 L 23.234375 -6.515625 L 24.109375 -10.3125 L 26.921875 -23.234375 L 31.84375 -23.234375 Z M 25.84375 0" transform="translate(121.083 265.902)"/></g></g></g><g fill="#101120"><g><g><path d="M 24.859375 -11.734375 C 24.859375 -9.304688 24.378906 -7.175781 23.421875 -5.34375 C 22.460938 -3.507812 21.09375 -2.101562 19.3125 -1.125 C 17.53125 -0.15625 15.453125 0.328125 13.078125 0.328125 C 9.429688 0.328125 6.570312 -0.742188 4.5 -2.890625 C 2.425781 -5.046875 1.390625 -7.992188 1.390625 -11.734375 C 1.390625 -15.453125 2.421875 -18.359375 4.484375 -20.453125 C 6.554688 -22.546875 9.429688 -23.59375 13.109375 -23.59375 C 16.796875 -23.59375 19.675781 -22.535156 21.75 -20.421875 C 23.820312 -18.304688 24.859375 -15.410156 24.859375 -11.734375 Z M 19.890625 -11.734375 C 19.890625 -14.234375 19.296875 -16.195312 18.109375 -17.625 C 16.921875 -19.050781 15.253906 -19.765625 13.109375 -19.765625 C 10.929688 -19.765625 9.25 -19.054688 8.0625 -17.640625 C 6.875 -16.222656 6.28125 -14.253906 6.28125 -11.734375 C 6.28125 -9.179688 6.890625 -7.171875 8.109375 -5.703125 C 9.328125 -4.234375 10.984375 -3.5 13.078125 -3.5 C 15.253906 -3.5 16.929688 -4.210938 18.109375 -5.640625 C 19.296875 -7.066406 19.890625 -9.097656 19.890625 -11.734375 Z M 19.890625 -11.734375" transform="translate(154.277 265.902)"/></g></g></g><g fill="#101120"><g><g><path d="M 18.234375 0 L 12.828125 -8.828125 L 7.125 -8.828125 L 7.125 0 L 2.265625 0 L 2.265625 -23.234375 L 13.875 -23.234375 C 16.644531 -23.234375 18.78125 -22.632812 20.28125 -21.4375 C 21.789062 -20.25 22.546875 -18.539062 22.546875 -16.3125 C 22.546875 -14.6875 22.082031 -13.28125 21.15625 -12.09375 C 20.238281 -10.914062 18.992188 -10.140625 17.421875 -9.765625 L 23.703125 0 Z M 17.65625 -16.109375 C 17.65625 -18.347656 16.222656 -19.46875 13.359375 -19.46875 L 7.125 -19.46875 L 7.125 -12.609375 L 13.5 -12.609375 C 14.851562 -12.609375 15.882812 -12.914062 16.59375 -13.53125 C 17.300781 -14.144531 17.65625 -15.003906 17.65625 -16.109375 Z M 17.65625 -16.109375" transform="translate(181.865 265.902)"/></g></g></g><g fill="#101120"><g><g><path d="M 2.265625 0 L 2.265625 -23.234375 L 7.125 -23.234375 L 7.125 -3.765625 L 19.59375 -3.765625 L 19.59375 0 Z M 2.265625 0" transform="translate(207.573 265.902)"/></g></g></g><g fill="#101120"><g><g><path d="M 22.984375 -11.796875 C 22.984375 -9.398438 22.507812 -7.304688 21.5625 -5.515625 C 20.625 -3.734375 19.296875 -2.367188 17.578125 -1.421875 C 15.859375 -0.472656 13.882812 0 11.65625 0 L 2.265625 0 L 2.265625 -23.234375 L 10.671875 -23.234375 C 14.585938 -23.234375 17.617188 -22.242188 19.765625 -20.265625 C 21.910156 -18.296875 22.984375 -15.472656 22.984375 -11.796875 Z M 18.078125 -11.796875 C 18.078125 -14.285156 17.425781 -16.1875 16.125 -17.5 C 14.832031 -18.820312 12.984375 -19.484375 10.578125 -19.484375 L 7.125 -19.484375 L 7.125 -3.765625 L 11.25 -3.765625 C 13.34375 -3.765625 15.003906 -4.484375 16.234375 -5.921875 C 17.460938 -7.359375 18.078125 -9.316406 18.078125 -11.796875 Z M 18.078125 -11.796875" transform="translate(229.52 265.902)"/></g></g></g><g fill="#0057FF"><g><g><path d="M 5.566406 -6.742188 L 0.210938 -6.742188 L 0.210938 -5.46875 L 2.15625 -5.46875 L 2.15625 0 L 3.628906 0 L 3.628906 -5.46875 L 5.566406 -5.46875 Z M 5.566406 -6.742188" transform="translate(143.26 290.426)"/></g></g></g><g fill="#0057FF"><g><g><path d="M 1.972656 -1.269531 L 1.972656 -2.832031 L 4.746094 -2.832031 L 4.746094 -4.007812 L 1.972656 -4.007812 L 1.972656 -5.46875 L 5.230469 -5.46875 L 5.230469 -6.742188 L 0.5 -6.742188 L 0.5 0 L 5.324219 0 L 5.324219 -1.269531 Z M 1.972656 -1.269531" transform="translate(151.719 290.426)"/></g></g></g><g fill="#0057FF"><g><g><path d="M 3.496094 -1.183594 C 2.464844 -1.183594 1.898438 -2.03125 1.898438 -3.371094 C 1.898438 -4.71875 2.464844 -5.554688 3.496094 -5.554688 C 4.21875 -5.554688 4.546875 -5.25 4.796875 -4.59375 L 6.25 -4.59375 C 6.085938 -6.097656 4.863281 -6.828125 3.46875 -6.828125 C 1.617188 -6.828125 0.355469 -5.605469 0.355469 -3.371094 C 0.355469 -1.136719 1.617188 0.0859375 3.46875 0.0859375 C 4.871094 0.0859375 6.105469 -0.644531 6.269531 -2.15625 L 4.804688 -2.15625 C 4.566406 -1.492188 4.226562 -1.183594 3.496094 -1.183594 Z M 3.496094 -1.183594" transform="translate(160.015 290.426)"/></g></g></g><g fill="#0057FF"><g><g><path d="M 4.554688 -6.742188 L 4.554688 -3.96875 L 1.972656 -3.96875 L 1.972656 -6.742188 L 0.5 -6.742188 L 0.5 0 L 1.972656 0 L 1.972656 -2.773438 L 4.554688 -2.773438 L 4.554688 0 L 6.027344 0 L 6.027344 -6.742188 Z M 4.554688 -6.742188" transform="translate(169.254 290.426)"/></g></g></g><g fill="#0057FF"><g><g><path d="M 6.191406 -6.742188 L 4.71875 -6.742188 L 4.71875 -2.359375 L 4.691406 -2.359375 L 1.992188 -6.742188 L 0.5 -6.742188 L 0.5 0 L 1.972656 0 L 1.972656 -4.296875 L 2.003906 -4.296875 L 4.640625 0 L 6.191406 0 Z M 6.191406 -6.742188" transform="translate(178.464 290.426)"/></g></g></g><g fill="#0057FF"><g><g><path d="M 3.5625 -6.828125 C 1.628906 -6.828125 0.355469 -5.554688 0.355469 -3.371094 C 0.355469 -1.203125 1.628906 0.0859375 3.5625 0.0859375 C 5.5 0.0859375 6.761719 -1.203125 6.761719 -3.371094 C 6.761719 -5.554688 5.5 -6.828125 3.5625 -6.828125 Z M 3.5625 -1.183594 C 2.496094 -1.183594 1.898438 -2.023438 1.898438 -3.371094 C 1.898438 -4.726562 2.496094 -5.554688 3.5625 -5.554688 C 4.621094 -5.554688 5.21875 -4.726562 5.21875 -3.371094 C 5.21875 -2.023438 4.621094 -1.183594 3.5625 -1.183594 Z M 3.5625 -1.183594" transform="translate(187.838 290.426)"/></g></g></g><g fill="#0057FF"><g><g><path d="M 1.972656 -1.269531 L 1.972656 -6.742188 L 0.5 -6.742188 L 0.5 0 L 5.046875 0 L 5.046875 -1.269531 Z M 1.972656 -1.269531" transform="translate(197.634 290.426)"/></g></g></g><g fill="#0057FF"><g><g><path d="M 3.5625 -6.828125 C 1.628906 -6.828125 0.355469 -5.554688 0.355469 -3.371094 C 0.355469 -1.203125 1.628906 0.0859375 3.5625 0.0859375 C 5.5 0.0859375 6.761719 -1.203125 6.761719 -3.371094 C 6.761719 -5.554688 5.5 -6.828125 3.5625 -6.828125 Z M 3.5625 -1.183594 C 2.496094 -1.183594 1.898438 -2.023438 1.898438 -3.371094 C 1.898438 -4.726562 2.496094 -5.554688 3.5625 -5.554688 C 4.621094 -5.554688 5.21875 -4.726562 5.21875 -3.371094 C 5.21875 -2.023438 4.621094 -1.183594 3.5625 -1.183594 Z M 3.5625 -1.183594" transform="translate(205.623 290.426)"/></g></g></g><g fill="#0057FF"><g><g><path d="M 6.453125 -3.699219 L 3.71875 -3.699219 L 3.71875 -2.550781 L 5.113281 -2.550781 C 5.015625 -1.550781 4.488281 -1.183594 3.554688 -1.183594 C 2.457031 -1.183594 1.898438 -2.050781 1.898438 -3.371094 C 1.898438 -4.71875 2.476562 -5.554688 3.496094 -5.554688 C 4.160156 -5.554688 4.515625 -5.277344 4.777344 -4.738281 L 6.230469 -4.738281 C 6 -6.125 4.804688 -6.828125 3.46875 -6.828125 C 1.636719 -6.828125 0.355469 -5.605469 0.355469 -3.371094 C 0.355469 -1.144531 1.617188 0.0859375 3.554688 0.0859375 C 5.605469 0.0859375 6.453125 -1.070312 6.453125 -3.246094 Z M 6.453125 -3.699219" transform="translate(215.42 290.426)"/></g></g></g><g fill="#0057FF"><g><g><path d="M 4.152344 -2.476562 L 6.578125 -6.742188 L 4.921875 -6.742188 L 3.390625 -3.890625 L 1.867188 -6.742188 L 0.210938 -6.742188 L 2.636719 -2.476562 L 2.636719 0 L 4.152344 0 Z M 4.152344 -2.476562" transform="translate(224.957 290.426)"/></g></g></g></svg>